<?xml version="1.0" encoding="UTF-8"?>
<svg version="1.1" xmlns="http://www.w3.org/2000/svg" width="1024" height="1024">
<path d="M0 0 C1.35597681 0.00331217 2.71195424 0.00638119 4.06793213 0.00921631 C26.0622138 0.07114395 47.75286242 1.00181236 69.5 4.4375 C70.19407959 4.54640564 70.88815918 4.65531128 71.60327148 4.76751709 C81.63465121 6.35994213 91.57381042 8.28048787 101.5 10.4375 C102.66047852 10.68838379 103.82095703 10.93926758 105.01660156 11.19775391 C162.09203204 23.83692998 217.60188507 47.90309695 265.5 81.4375 C266.07959473 81.84129883 266.65918945 82.24509766 267.25634766 82.66113281 C279.88752659 91.4806172 291.97263559 100.83975247 303.64794922 110.88867188 C304.99920591 112.01869724 306.374177 113.12053923 307.76220703 114.20507812 C316.0715061 120.76003562 323.48052788 128.11381213 330.93457031 135.61132812 C333.12084876 137.8083284 335.31761938 139.99442678 337.515625 142.1796875 C344.97513594 149.63217854 351.98185534 157.14151709 358.5 165.4375 C359.49404305 166.60224042 360.4968136 167.75964224 361.51171875 168.90625 C416.18485705 230.74373073 450.84859954 312.02815855 464.25 392.9375 C464.43651123 394.04826904 464.62302246 395.15903809 464.81518555 396.3034668 C468.59681149 420.47092374 470.05614269 444.49748818 469.9375 468.9375 C469.93418783 470.29347681 469.93111881 471.64945424 469.92828369 473.00543213 C469.86635605 494.9997138 468.93568764 516.69036242 465.5 538.4375 C465.39109436 539.13157959 465.28218872 539.82565918 465.16998291 540.54077148 C463.57755787 550.57215121 461.65701213 560.51131042 459.5 570.4375 C459.24911621 571.59797852 458.99823242 572.75845703 458.73974609 573.95410156 C444.85915459 636.63546077 417.13691228 697.19572875 378.5 748.4375 C378.04254395 749.04658203 377.58508789 749.65566406 377.11376953 750.28320312 C369.42808339 760.48559134 361.45657823 770.42561078 352.8359375 779.85546875 C351.59124103 781.23129545 350.35169069 782.61254259 349.15234375 784.02807617 C343.63348353 790.50774794 337.62819769 796.49539648 331.61328125 802.50952148 C329.76271033 804.36227468 327.92029924 806.22288706 326.078125 808.08398438 C319.18857946 815.0058261 312.15919818 821.3685321 304.5 827.4375 C303.33560477 828.43194737 302.17814808 829.43464169 301.03125 830.44921875 C239.19376927 885.12235705 157.90934145 919.78609954 77 933.1875 C75.88923096 933.37401123 74.77846191 933.56052246 73.6340332 933.75268555 C49.46657626 937.53431149 25.44001182 938.99364269 1 938.875 C-0.35597681 938.87168783 -1.71195424 938.86861881 -3.06793213 938.86578369 C-25.0622138 938.80385605 -46.75286242 937.87318764 -68.5 934.4375 C-69.19407959 934.32859436 -69.88815918 934.21968872 -70.60327148 934.10748291 C-80.63465121 932.51505787 -90.57381042 930.59451213 -100.5 928.4375 C-102.24071777 928.06117432 -102.24071777 928.06117432 -104.01660156 927.67724609 C-161.09203204 915.03807002 -216.60188507 890.97190305 -264.5 857.4375 C-265.07959473 857.03370117 -265.65918945 856.62990234 -266.25634766 856.21386719 C-278.88752659 847.3943828 -290.97263559 838.03524753 -302.64794922 827.98632812 C-303.99920591 826.85630276 -305.374177 825.75446077 -306.76220703 824.66992188 C-315.0715061 818.11496438 -322.48052788 810.76118787 -329.93457031 803.26367188 C-332.12084876 801.0666716 -334.31761938 798.88057322 -336.515625 796.6953125 C-343.97513594 789.24282146 -350.98185534 781.73348291 -357.5 773.4375 C-358.49404305 772.27275958 -359.4968136 771.11535776 -360.51171875 769.96875 C-415.18485705 708.13126927 -449.84859954 626.84684145 -463.25 545.9375 C-463.43651123 544.82673096 -463.62302246 543.71596191 -463.81518555 542.5715332 C-467.59681149 518.40407626 -469.05614269 494.37751182 -468.9375 469.9375 C-468.93418783 468.58152319 -468.93111881 467.22554576 -468.92828369 465.86956787 C-468.86635605 443.8752862 -467.93568764 422.18463758 -464.5 400.4375 C-464.33664154 399.39638062 -464.33664154 399.39638062 -464.16998291 398.33422852 C-462.57755787 388.30284879 -460.65701213 378.36368958 -458.5 368.4375 C-458.24911621 367.27702148 -457.99823242 366.11654297 -457.73974609 364.92089844 C-443.85326272 302.212933 -416.11210022 241.72222327 -377.5 190.4375 C-377.05317871 189.83905273 -376.60635742 189.24060547 -376.14599609 188.62402344 C-370.39411139 180.93308113 -364.31161162 173.5659512 -358.04882812 166.28955078 C-356.91880276 164.93829409 -355.81696077 163.563323 -354.73242188 162.17529297 C-348.17746438 153.8659939 -340.82368787 146.45697212 -333.32617188 139.00292969 C-331.1291716 136.81665124 -328.94307322 134.61988062 -326.7578125 132.421875 C-319.30532146 124.96236406 -311.79598291 117.95564466 -303.5 111.4375 C-302.33525958 110.44345695 -301.17785776 109.4406864 -300.03125 108.42578125 C-238.19376927 53.75264295 -156.90934145 19.08890046 -76 5.6875 C-74.88923096 5.50098877 -73.77846191 5.31447754 -72.6340332 5.12231445 C-48.46657626 1.34068851 -24.44001182 -0.11864269 0 0 Z " fill="#1C88F2" transform="translate(511.5,42.5625)"/>
<path d="M0 0 C1.35597681 0.00331217 2.71195424 0.00638119 4.06793213 0.00921631 C26.0622138 0.07114395 47.75286242 1.00181236 69.5 4.4375 C70.19407959 4.54640564 70.88815918 4.65531128 71.60327148 4.76751709 C81.63465121 6.35994213 91.57381042 8.28048787 101.5 10.4375 C102.66047852 10.68838379 103.82095703 10.93926758 105.01660156 11.19775391 C162.09203204 23.83692998 217.60188507 47.90309695 265.5 81.4375 C266.07959473 81.84129883 266.65918945 82.24509766 267.25634766 82.66113281 C279.88752659 91.4806172 291.97263559 100.83975247 303.64794922 110.88867188 C304.99920591 112.01869724 306.374177 113.12053923 307.76220703 114.20507812 C316.0715061 120.76003562 323.48052788 128.11381213 330.93457031 135.61132812 C333.12084876 137.8083284 335.31761938 139.99442678 337.515625 142.1796875 C344.97513594 149.63217854 351.98185534 157.14151709 358.5 165.4375 C359.49404305 166.60224042 360.4968136 167.75964224 361.51171875 168.90625 C416.18485705 230.74373073 450.84859954 312.02815855 464.25 392.9375 C464.43651123 394.04826904 464.62302246 395.15903809 464.81518555 396.3034668 C468.59681149 420.47092374 470.05614269 444.49748818 469.9375 468.9375 C469.93418783 470.29347681 469.93111881 471.64945424 469.92828369 473.00543213 C469.86635605 494.9997138 468.93568764 516.69036242 465.5 538.4375 C465.39109436 539.13157959 465.28218872 539.82565918 465.16998291 540.54077148 C463.57755787 550.57215121 461.65701213 560.51131042 459.5 570.4375 C459.24911621 571.59797852 458.99823242 572.75845703 458.73974609 573.95410156 C444.85915459 636.63546077 417.13691228 697.19572875 378.5 748.4375 C378.04254395 749.04658203 377.58508789 749.65566406 377.11376953 750.28320312 C369.42808339 760.48559134 361.45657823 770.42561078 352.8359375 779.85546875 C351.59124103 781.23129545 350.35169069 782.61254259 349.15234375 784.02807617 C343.63348353 790.50774794 337.62819769 796.49539648 331.61328125 802.50952148 C329.76271033 804.36227468 327.92029924 806.22288706 326.078125 808.08398438 C319.18857946 815.0058261 312.15919818 821.3685321 304.5 827.4375 C303.33560477 828.43194737 302.17814808 829.43464169 301.03125 830.44921875 C239.19376927 885.12235705 157.90934145 919.78609954 77 933.1875 C75.88923096 933.37401123 74.77846191 933.56052246 73.6340332 933.75268555 C49.46657626 937.53431149 25.44001182 938.99364269 1 938.875 C-0.35597681 938.87168783 -1.71195424 938.86861881 -3.06793213 938.86578369 C-25.0622138 938.80385605 -46.75286242 937.87318764 -68.5 934.4375 C-69.19407959 934.32859436 -69.88815918 934.21968872 -70.60327148 934.10748291 C-80.63465121 932.51505787 -90.57381042 930.59451213 -100.5 928.4375 C-102.24071777 928.06117432 -102.24071777 928.06117432 -104.01660156 927.67724609 C-161.09203204 915.03807002 -216.60188507 890.97190305 -264.5 857.4375 C-265.07959473 857.03370117 -265.65918945 856.62990234 -266.25634766 856.21386719 C-278.88752659 847.3943828 -290.97263559 838.03524753 -302.64794922 827.98632812 C-303.99920591 826.85630276 -305.374177 825.75446077 -306.76220703 824.66992188 C-315.0715061 818.11496438 -322.48052788 810.76118787 -329.93457031 803.26367188 C-332.12084876 801.0666716 -334.31761938 798.88057322 -336.515625 796.6953125 C-343.97513594 789.24282146 -350.98185534 781.73348291 -357.5 773.4375 C-358.49404305 772.27275958 -359.4968136 771.11535776 -360.51171875 769.96875 C-415.18485705 708.13126927 -449.84859954 626.84684145 -463.25 545.9375 C-463.43651123 544.82673096 -463.62302246 543.71596191 -463.81518555 542.5715332 C-467.59681149 518.40407626 -469.05614269 494.37751182 -468.9375 469.9375 C-468.93418783 468.58152319 -468.93111881 467.22554576 -468.92828369 465.86956787 C-468.86635605 443.8752862 -467.93568764 422.18463758 -464.5 400.4375 C-464.33664154 399.39638062 -464.33664154 399.39638062 -464.16998291 398.33422852 C-462.57755787 388.30284879 -460.65701213 378.36368958 -458.5 368.4375 C-458.24911621 367.27702148 -457.99823242 366.11654297 -457.73974609 364.92089844 C-443.85326272 302.212933 -416.11210022 241.72222327 -377.5 190.4375 C-377.05317871 189.83905273 -376.60635742 189.24060547 -376.14599609 188.62402344 C-370.39411139 180.93308113 -364.31161162 173.5659512 -358.04882812 166.28955078 C-356.91880276 164.93829409 -355.81696077 163.563323 -354.73242188 162.17529297 C-348.17746438 153.8659939 -340.82368787 146.45697212 -333.32617188 139.00292969 C-331.1291716 136.81665124 -328.94307322 134.61988062 -326.7578125 132.421875 C-319.30532146 124.96236406 -311.79598291 117.95564466 -303.5 111.4375 C-302.33525958 110.44345695 -301.17785776 109.4406864 -300.03125 108.42578125 C-238.19376927 53.75264295 -156.90934145 19.08890046 -76 5.6875 C-74.88923096 5.50098877 -73.77846191 5.31447754 -72.6340332 5.12231445 C-48.46657626 1.34068851 -24.44001182 -0.11864269 0 0 Z M-119.5 64.4375 C-120.3765625 64.70643066 -121.253125 64.97536133 -122.15625 65.25244141 C-168.96467974 79.65978 -216.1445552 102.84636131 -254.5 133.4375 C-255.47710937 134.21480469 -256.45421875 134.99210937 -257.4609375 135.79296875 C-260.16411202 137.98106847 -262.8353226 140.20273421 -265.5 142.4375 C-266.49 143.25347656 -267.48 144.06945312 -268.5 144.91015625 C-284.76492885 158.39156604 -301.02187183 173.08047296 -314.65625 189.25390625 C-316.19569092 191.07710006 -317.76017482 192.86775273 -319.34375 194.65234375 C-355.75521601 235.84153443 -382.8736499 285.48615232 -400.5 337.4375 C-400.84160156 338.4378125 -401.18320312 339.438125 -401.53515625 340.46875 C-406.43998739 354.94795632 -410.54367245 369.43524079 -413.5 384.4375 C-413.72163818 385.55801758 -413.72163818 385.55801758 -413.94775391 386.70117188 C-422.6911861 432.1135929 -424.13714079 481.66411526 -417.5 527.4375 C-417.3981842 528.14632324 -417.29636841 528.85514648 -417.19146729 529.58544922 C-409.15168018 585.22674142 -389.95016436 636.97042482 -361.5 685.4375 C-361.01885742 686.25911621 -360.53771484 687.08073242 -360.04199219 687.92724609 C-349.88375651 705.17204353 -338.35746687 721.11231845 -325.5 736.4375 C-324.7579834 737.32816162 -324.7579834 737.32816162 -324.00097656 738.23681641 C-310.94390535 753.88000761 -297.03227809 769.47260838 -281.50390625 782.7109375 C-279.24766614 784.65491046 -277.06636107 786.67073518 -274.875 788.6875 C-269.22958144 793.77961567 -263.28012155 798.43419992 -257.26269531 803.07324219 C-255.58104976 804.37477063 -253.91027626 805.68897665 -252.2421875 807.0078125 C-227.83406894 826.2172117 -199.94235109 842.06329897 -171.5 854.4375 C-169.68632183 855.26826603 -167.87361699 856.10116517 -166.0625 856.9375 C-160.93196213 859.26891845 -155.75667971 861.40834811 -150.5 863.4375 C-149.44425781 863.85515625 -148.38851563 864.2728125 -147.30078125 864.703125 C-120.25694847 875.16428879 -93.15144875 882.71964584 -64.35693359 886.0859375 C-61.51881288 886.43518496 -58.69214753 886.83273115 -55.86328125 887.25 C-54.93128906 887.38583496 -53.99929688 887.52166992 -53.0390625 887.66162109 C-51.32843919 887.91312929 -49.61864077 888.17038665 -47.91015625 888.43603516 C-31.93922898 890.73439909 -15.63392045 890.60316564 0.46582031 890.56787109 C3.39393188 890.56246505 6.32189274 890.56788297 9.25 890.57421875 C19.38344972 890.57811734 29.40445049 890.38856775 39.5 889.4375 C40.26070801 889.36982422 41.02141602 889.30214844 41.80517578 889.23242188 C47.048207 888.73949817 52.27413105 888.08386483 57.5 887.4375 C58.51368652 887.31536133 59.52737305 887.19322266 60.57177734 887.06738281 C85.61711846 883.99118181 109.47226802 878.41578919 133.3125 870.25 C134.06661163 869.99210693 134.82072327 869.73421387 135.59768677 869.46850586 C143.14009876 866.87171262 150.4319556 864.17171537 157.5 860.4375 C159.57101453 859.61414544 161.65409275 858.82025108 163.75 858.0625 C170.24997664 855.60728494 176.32999737 852.61667107 182.5 849.4375 C183.70052985 848.84373253 184.90241639 848.25270224 186.10546875 847.6640625 C215.41094591 833.29885217 242.44820601 816.34766676 267.5 795.4375 C268.098125 794.93992187 268.69625 794.44234375 269.3125 793.9296875 C284.95045084 780.87479104 300.53870176 766.9655631 313.7734375 751.44140625 C315.71741046 749.18516614 317.73323518 747.00386107 319.75 744.8125 C324.84448717 739.16445226 329.49952946 733.21200494 334.14013672 727.19140625 C335.42554922 725.53352413 336.72698136 723.88994726 338.03515625 722.25 C348.85219658 708.53584427 357.89845681 693.61615176 366.5 678.4375 C366.99757813 677.56270996 367.49515625 676.68791992 368.0078125 675.78662109 C376.87343704 660.09981561 384.48855208 644.03065122 391.5 627.4375 C392.07790283 626.0764917 392.07790283 626.0764917 392.66748047 624.68798828 C404.38715472 596.88227857 412.10459479 568.58892151 416.75 538.8125 C416.8750592 538.02003876 417.00011841 537.22757751 417.12896729 536.41110229 C420.58259041 514.28939326 421.91202097 492.31873316 421.875 469.9375 C421.87468277 468.15066299 421.87468277 468.15066299 421.87435913 466.32772827 C421.83653292 444.82182531 420.58275141 423.71885754 417.5 402.4375 C417.21914551 400.48191162 417.21914551 400.48191162 416.93261719 398.48681641 C406.39244845 328.02788188 373.01614244 257.98163763 327.5 203.4375 C326.25283203 201.92736328 326.25283203 201.92736328 324.98046875 200.38671875 C315.11672584 188.51471192 304.51052655 177.37319027 293.625 166.4375 C292.93583496 165.74366211 292.24666992 165.04982422 291.53662109 164.33496094 C287.02030369 159.83277401 282.33703397 155.59101293 277.5 151.4375 C276.41717316 150.4878856 275.33509807 149.53741305 274.25390625 148.5859375 C210.95692422 93.36963068 131.58380593 60.48137907 48.71875 50.48828125 C47.96922058 50.3967981 47.21969116 50.30531494 46.44744873 50.21105957 C36.36375512 49.01526434 26.33945982 48.28072121 16.18359375 48.234375 C15.14130615 48.22731537 14.09901855 48.22025574 13.02514648 48.21298218 C-32.12843211 47.97724901 -76.17989069 50.75464768 -119.5 64.4375 Z " fill="#FBFBFB" transform="translate(511.5,42.5625)"/>
<path d="M0 0 C0.90723144 -0.00290688 1.81446288 -0.00581376 2.74918619 -0.00880873 C5.81738973 -0.01616132 8.88539658 -0.00914097 11.95359898 -0.002285 C14.16423141 -0.00458736 16.37486309 -0.00776236 18.58549315 -0.01173949 C24.68225683 -0.02012712 30.77895831 -0.01594429 36.87572229 -0.00976706 C42.76858734 -0.00572212 48.66143891 -0.01102837 54.55430211 -0.01606179 C67.35599424 -0.02660884 80.15766644 -0.02567426 92.95936048 -0.01990396 C104.16275993 -0.01487871 115.36615207 -0.01355671 126.56955242 -0.01594925 C127.31184758 -0.01610202 128.05414273 -0.01625479 128.81893168 -0.01641219 C131.83193654 -0.01703484 134.84494139 -0.01767163 137.85794624 -0.01833172 C166.14045153 -0.02445401 194.42294411 -0.0188961 222.70544743 -0.00813792 C247.84705509 0.00135278 272.98864249 0.00050535 298.13024998 -0.00905991 C326.35854054 -0.01976353 354.58681986 -0.02401889 382.81511217 -0.01783538 C385.82303146 -0.01719392 388.83095075 -0.01656824 391.83887005 -0.01594925 C392.94985925 -0.01571202 392.94985925 -0.01571202 394.08329267 -0.01546999 C405.28049153 -0.01319262 416.47768229 -0.01586014 427.67488003 -0.02090836 C440.40414911 -0.02661859 453.1333951 -0.02521498 465.86266129 -0.01434687 C472.36227174 -0.00907656 478.86184098 -0.00705644 485.36145115 -0.01364517 C491.30451125 -0.01957877 497.24749173 -0.01637256 503.19054455 -0.00569007 C505.34730775 -0.00344498 507.5040776 -0.00461693 509.66083657 -0.00944164 C512.57945407 -0.01547279 515.49779437 -0.00933661 518.41639709 0 C519.26496065 -0.00468233 520.11352421 -0.00936466 520.98780182 -0.01418889 C528.00749416 0.03107371 528.00749416 0.03107371 531.27111912 2.25168228 C528.53768917 8.66361103 522.51971548 13.54435166 517.14611912 17.81418228 C514.04322765 20.44489461 511.51627605 23.29803875 508.87658787 26.38058853 C507.09850186 28.45285908 505.31361095 30.43613398 503.27111912 32.25168228 C502.61111912 32.25168228 501.95111912 32.25168228 501.27111912 32.25168228 C501.27111912 32.91168228 501.27111912 33.57168228 501.27111912 34.25168228 C499.69690037 35.76730728 499.69690037 35.76730728 497.58361912 37.50168228 C494.91762779 39.75243956 492.5610182 41.95217773 490.39611912 44.68918228 C489.69486912 45.53480728 488.99361912 46.38043228 488.27111912 47.25168228 C487.61111912 47.25168228 486.95111912 47.25168228 486.27111912 47.25168228 C486.27111912 47.91168228 486.27111912 48.57168228 486.27111912 49.25168228 C485.61111912 49.25168228 484.95111912 49.25168228 484.27111912 49.25168228 C484.27111912 49.91168228 484.27111912 50.57168228 484.27111912 51.25168228 C482.62658787 52.83761978 482.62658787 52.83761978 480.45861912 54.62668228 C478.20861055 56.4873451 476.36761626 58.12040932 474.63440037 60.47824478 C474.18451756 61.06347916 473.73463474 61.64871353 473.27111912 62.25168228 C472.61111912 62.25168228 471.95111912 62.25168228 471.27111912 62.25168228 C471.27111912 62.91168228 471.27111912 63.57168228 471.27111912 64.25168228 C470.61111912 64.25168228 469.95111912 64.25168228 469.27111912 64.25168228 C469.27111912 64.91168228 469.27111912 65.57168228 469.27111912 66.25168228 C468.61111912 66.25168228 467.95111912 66.25168228 467.27111912 66.25168228 C467.27111912 66.91168228 467.27111912 67.57168228 467.27111912 68.25168228 C466.61111912 68.25168228 465.95111912 68.25168228 465.27111912 68.25168228 C465.27111912 68.91168228 465.27111912 69.57168228 465.27111912 70.25168228 C463.62658787 71.83761978 463.62658787 71.83761978 461.45861912 73.62668228 C459.20861055 75.4873451 457.36761626 77.12040932 455.63440037 79.47824478 C455.18451756 80.06347916 454.73463474 80.64871353 454.27111912 81.25168228 C453.61111912 81.25168228 452.95111912 81.25168228 452.27111912 81.25168228 C452.27111912 81.91168228 452.27111912 82.57168228 452.27111912 83.25168228 C451.61111912 83.25168228 450.95111912 83.25168228 450.27111912 83.25168228 C450.27111912 83.91168228 450.27111912 84.57168228 450.27111912 85.25168228 C449.61111912 85.25168228 448.95111912 85.25168228 448.27111912 85.25168228 C448.27111912 85.91168228 448.27111912 86.57168228 448.27111912 87.25168228 C447.61111912 87.25168228 446.95111912 87.25168228 446.27111912 87.25168228 C446.27111912 87.91168228 446.27111912 88.57168228 446.27111912 89.25168228 C444.62658787 90.83761978 444.62658787 90.83761978 442.45861912 92.62668228 C440.20861055 94.4873451 438.36761626 96.12040932 436.63440037 98.47824478 C436.18451756 99.06347916 435.73463474 99.64871353 435.27111912 100.25168228 C434.61111912 100.25168228 433.95111912 100.25168228 433.27111912 100.25168228 C433.27111912 100.91168228 433.27111912 101.57168228 433.27111912 102.25168228 C432.61111912 102.25168228 431.95111912 102.25168228 431.27111912 102.25168228 C431.27111912 102.91168228 431.27111912 103.57168228 431.27111912 104.25168228 C430.61111912 104.25168228 429.95111912 104.25168228 429.27111912 104.25168228 C429.27111912 104.91168228 429.27111912 105.57168228 429.27111912 106.25168228 C428.61111912 106.25168228 427.95111912 106.25168228 427.27111912 106.25168228 C427.27111912 106.91168228 427.27111912 107.57168228 427.27111912 108.25168228 C425.69690037 109.76730728 425.69690037 109.76730728 423.58361912 111.50168228 C420.91762779 113.75243956 418.5610182 115.95217773 416.39611912 118.68918228 C415.69486912 119.53480728 414.99361912 120.38043228 414.27111912 121.25168228 C413.61111912 121.25168228 412.95111912 121.25168228 412.27111912 121.25168228 C412.27111912 121.91168228 412.27111912 122.57168228 412.27111912 123.25168228 C411.61111912 123.25168228 410.95111912 123.25168228 410.27111912 123.25168228 C410.27111912 123.91168228 410.27111912 124.57168228 410.27111912 125.25168228 C408.90692806 126.59531116 408.90692806 126.59531116 406.95700169 128.19591141 C401.44614064 132.88748058 396.39265449 138.01352227 391.29699802 143.14401627 C390.21556615 144.22901129 389.13389431 145.31376718 388.05200291 146.39830399 C385.7382215 148.71859458 383.42596091 151.04038607 381.11485767 153.36334419 C377.46234102 157.03425036 373.80539496 160.70072251 370.14767551 164.36644363 C359.75291568 174.78528823 349.36418593 185.21013364 338.97961521 195.63913345 C333.23259314 201.41066527 327.48201259 207.17862754 321.72755849 212.94274956 C318.0877952 216.58906561 314.45258944 220.23984749 310.82065988 223.8939656 C308.56864854 226.1576656 306.31250728 228.41721306 304.05514622 230.67557716 C303.00605343 231.72682575 301.95869292 232.77980619 300.91315937 233.83459473 C299.49130535 235.26855154 298.06275482 236.6958593 296.63382053 238.12276077 C295.83487684 238.92484687 295.03593315 239.72693296 294.21277905 240.5533247 C292.27111912 242.25168228 292.27111912 242.25168228 290.27111912 242.25168228 C290.27111912 242.91168228 290.27111912 243.57168228 290.27111912 244.25168228 C287.27111912 246.25168228 287.27111912 246.25168228 284.27111912 246.25168228 C284.27111912 246.91168228 284.27111912 247.57168228 284.27111912 248.25168228 C283.28111912 248.58168228 282.29111912 248.91168228 281.27111912 249.25168228 C280.94111912 249.91168228 280.61111912 250.57168228 280.27111912 251.25168228 C274.49955172 254.41524195 269.52524995 254.72803628 263.02111912 254.62668228 C262.08670994 254.61653091 261.15230076 254.60637955 260.18957615 254.59592056 C247.65196692 254.31400465 235.66882385 250.9817925 226.58361912 241.81418228 C226.04221287 241.22636978 225.50080662 240.63855728 224.94299412 240.03293228 C223.1729359 238.14707586 221.30114035 236.49191357 219.33361912 234.81418228 C215.67564458 231.66960768 212.29120032 228.31622823 208.93518162 224.85324478 C207.34689179 223.16539504 207.34689179 223.16539504 205.27111912 222.25168228 C205.27111912 221.59168228 205.27111912 220.93168228 205.27111912 220.25168228 C204.61111912 220.25168228 203.95111912 220.25168228 203.27111912 220.25168228 C201.85176128 218.8126415 201.85176128 218.8126415 200.19226074 216.80449867 C196.19125166 212.10396323 191.9077153 207.75776437 187.53285313 203.40662003 C186.67749326 202.55181687 185.8221334 201.69701371 184.94085354 200.81630743 C182.58694458 198.46489433 180.23081989 196.11574319 177.8737179 193.76753354 C175.32457822 191.22687446 172.7783991 188.68325144 170.23188877 186.13995743 C165.82618548 181.74053261 161.41876271 177.34283668 157.01025677 172.9462204 C150.63539906 166.58837578 144.26428576 160.22678907 137.89426064 153.864103 C127.55635151 143.53812078 117.21693527 133.21364932 106.87585545 122.89084244 C106.25776608 122.2738432 105.63967672 121.65684396 105.00285738 121.02114777 C96.2141547 112.24808499 87.42397326 103.47650531 78.63321453 94.70550279 C78.01300283 94.08668441 77.39279113 93.46786602 76.75378513 92.83029556 C75.82460111 91.90320183 75.82460111 91.90320183 74.87664569 90.95737894 C64.56258039 80.66631627 54.25235057 70.37142095 43.94528145 60.07335126 C37.58767411 53.72160577 31.22681822 47.3731478 24.86179297 41.02883558 C20.50826634 36.68897603 16.15831427 32.34555561 11.81121016 27.99926288 C9.30035085 25.48911015 6.78784572 22.98066147 4.27099705 20.47651291 C1.54879468 17.76797589 -1.16573395 15.05183336 -3.87950039 12.33484268 C-4.6840428 11.53680808 -5.4885852 10.73877347 -6.31750768 9.916556 C-7.03773707 9.19296121 -7.75796646 8.46936643 -8.50002098 7.72384453 C-9.1280811 7.09708592 -9.75614122 6.47032731 -10.40323347 5.82457602 C-11.72888088 4.25168228 -11.72888088 4.25168228 -11.72888088 2.25168228 C-7.81851225 -0.35523014 -4.53589595 -0.02495999 0 0 Z " fill="#FEFEFE" transform="translate(252.72888088226318,327.74831771850586)"/>
<path d="M0 0 C4.3285729 0.47644713 6.37189748 3.03871212 9.3125 6.0625 C10.21613281 6.98160156 11.11976563 7.90070312 12.05078125 8.84765625 C14.22981735 11.13373662 16.29685275 13.49644604 18.3515625 15.89453125 C22.00242937 20.09634078 25.96914074 23.85990413 30.0625 27.625 C49.54961778 45.76803149 49.54961778 45.76803149 56.75 54.375 C66.15721365 65.40902504 78.62240527 73.06990196 93 75 C101.04785075 75.47288786 109.01141363 75.03078534 117 74 C117 73.34 117 72.68 117 72 C120.63 71.67 124.26 71.34 128 71 C128 70.34 128 69.68 128 69 C128.66 69 129.32 69 130 69 C130 68.34 130 67.68 130 67 C131.5390625 65.95703125 131.5390625 65.95703125 133.625 64.8125 C137.51614063 62.50817204 140.04356113 59.9317593 142.7734375 56.35546875 C143.17820312 55.90816406 143.58296875 55.46085938 144 55 C144.66 55 145.32 55 146 55 C146 54.34 146 53.68 146 53 C146.66 53 147.32 53 148 53 C148 52.34 148 51.68 148 51 C149.32 50.67 150.64 50.34 152 50 C152 49.34 152 48.68 152 48 C152.66 48 153.32 48 154 48 C154 47.34 154 46.68 154 46 C154.66 46 155.32 46 156 46 C156 45.34 156 44.68 156 44 C156.66 44 157.32 44 158 44 C158.226875 43.443125 158.45375 42.88625 158.6875 42.3125 C160.01169081 39.97940191 161.54825089 38.38914479 163.45211792 36.52386475 C165.19994722 34.80315522 166.91320786 33.05173444 168.62524414 31.29541016 C172.29952604 27.5322824 175.98890132 23.78434703 179.68383789 20.04150391 C181.27587017 18.42414422 182.86341219 16.80235286 184.4465332 15.17626953 C186.73530582 12.82712275 189.03961231 10.49425778 191.34765625 8.1640625 C192.05503433 7.43087799 192.76241241 6.69769348 193.4912262 5.94229126 C194.15549118 5.27764862 194.81975616 4.61300598 195.50415039 3.92822266 C196.08419327 3.33707672 196.66423615 2.74593079 197.26185608 2.13687134 C199 1 199 1 201.11595154 1.2305603 C203.41020375 2.16752597 204.57107669 3.30752477 206.25 5.125 C208.57792242 7.56051548 210.91958658 9.83469657 213.5 12 C221.64573974 19.02988498 229.60846625 26.7926595 236.5 35.0625 C239.66473662 38.8041 243.21417706 42.06004961 246.8125 45.375 C252.83219178 50.92125858 258.70758604 56.59155726 264.5 62.375 C265.24096924 63.11153809 265.98193848 63.84807617 266.74536133 64.60693359 C270.80781608 68.67994495 274.689178 72.84018308 278.40136719 77.23583984 C280.07143854 79.0788355 281.84155163 80.65781618 283.75 82.25 C287.22505116 85.18374511 290.23897084 88.41607193 293.25 91.8125 C297.99786239 97.16047334 303.14228309 101.62634174 308.76171875 106.0390625 C309.86966797 107.00972656 309.86966797 107.00972656 311 108 C311 108.66 311 109.32 311 110 C311.66 110 312.32 110 313 110 C313.64388672 111.10794922 313.64388672 111.10794922 314.30078125 112.23828125 C316.23020562 115.37415029 318.24876805 116.99511267 321.1875 119.1875 C322.82614571 120.41355395 324.44058069 121.67463987 326 123 C326 123.66 326 124.32 326 125 C326.66 125 327.32 125 328 125 C329.05278825 126.29205831 330.04175747 127.63634717 331 129 C334.38605583 133.5147411 338.14075489 136.74153274 342.66796875 140.078125 C345.19337882 142.15936747 347.01878426 144.40464944 349 147 C350.6436814 148.68933922 352.3142876 150.35259924 354 152 C355.33468903 153.33197625 356.66791921 154.6654153 358 156 C358.68835938 156.68835938 359.37671875 157.37671875 360.0859375 158.0859375 C362.390625 160.390625 364.6953125 162.6953125 367 165 C367.54011719 165.51691406 368.08023438 166.03382813 368.63671875 166.56640625 C370.12702713 168.00807986 371.56749981 169.50087189 373 171 C373 171.66 373 172.32 373 173 C369.04989321 175.68556264 364.74490032 175.27701762 360.16368866 175.25168228 C359.25699175 175.25458916 358.35029483 175.25749604 357.41612226 175.26049101 C354.35575829 175.26783211 351.29559224 175.26082853 348.23522949 175.25396729 C346.0278588 175.25627009 343.82048887 175.2594454 341.61312056 175.26342177 C335.53001773 175.27180316 329.44697731 175.26762937 323.3638742 175.26144934 C317.48279392 175.25740226 311.60172714 175.26271194 305.72064872 175.26774407 C292.94592495 175.27828744 280.17122116 175.27735804 267.39649548 175.27158624 C256.21728533 175.26655997 245.03808251 175.26523947 233.85887146 175.26763153 C233.11803139 175.2677843 232.37719132 175.26793707 231.61390155 175.26809447 C228.60677496 175.26871712 225.59964837 175.26935392 222.59252178 175.270014 C194.36929808 175.27613536 166.14608712 175.27057974 137.92286538 175.2598202 C112.83480056 175.25032862 87.74675605 175.25117786 62.65869141 175.26074219 C34.48789232 175.27144578 6.31710449 175.27570128 -21.85369635 175.26951766 C-24.85542138 175.2688762 -27.85714642 175.26825052 -30.85887146 175.26763153 C-31.59800127 175.26747338 -32.33713109 175.26731522 -33.09865877 175.26715227 C-44.27228297 175.26487498 -55.44589903 175.26754224 -66.61952209 175.27259064 C-79.3213186 175.27830079 -92.02309197 175.2768974 -104.72488558 175.26602915 C-111.21032614 175.26075888 -117.69572541 175.25873867 -124.1811657 175.26532745 C-130.111233 175.27126107 -136.04122051 175.26805482 -141.97128052 175.25737235 C-144.12330322 175.25512729 -146.27533259 175.25629916 -148.42735106 175.26112393 C-151.33956113 175.26715515 -154.2514934 175.26101882 -157.16368866 175.25168228 C-158.01036203 175.25636461 -158.85703539 175.26104695 -159.72936553 175.26587117 C-166.73377898 175.2206086 -166.73377898 175.2206086 -170 173 C-167.84439673 168.17216676 -164.32819145 164.9981574 -160.625 161.3125 C-159.95210937 160.62349609 -159.27921875 159.93449219 -158.5859375 159.22460938 C-157.93109375 158.56912109 -157.27625 157.91363281 -156.6015625 157.23828125 C-156.00682129 156.64055908 -155.41208008 156.04283691 -154.79931641 155.42700195 C-152.85267937 153.88316294 -151.42809919 153.40713245 -149 153 C-148.88970459 152.40219727 -148.77940918 151.80439453 -148.66577148 151.18847656 C-147.92819513 148.76396815 -147.12822029 147.75398992 -145.34765625 145.984375 C-144.81849609 145.45585938 -144.28933594 144.92734375 -143.74414062 144.3828125 C-143.18919922 143.84398437 -142.63425781 143.30515625 -142.0625 142.75 C-141.51142578 142.19570313 -140.96035156 141.64140625 -140.39257812 141.0703125 C-136.26712592 137 -136.26712592 137 -134 137 C-133.9071875 136.195625 -133.9071875 136.195625 -133.8125 135.375 C-131.90716155 129.80554915 -127.9277372 126.77974919 -123 124 C-122.278125 123.278125 -121.55625 122.55625 -120.8125 121.8125 C-120.214375 121.214375 -119.61625 120.61625 -119 120 C-118.34 120 -117.68 120 -117 120 C-116.84917969 119.09507812 -116.84917969 119.09507812 -116.6953125 118.171875 C-115.86765785 115.58661666 -115.00942435 114.87713964 -112.875 113.25 C-110.15673145 111.05107545 -107.87263962 108.80326217 -105.625 106.125 C-101.82707621 101.66394666 -97.65713808 97.56636236 -93 94 C-92.34 94 -91.68 94 -91 94 C-90.89816406 93.40832031 -90.79632813 92.81664062 -90.69140625 92.20703125 C-89.879256 89.61457424 -88.8918639 88.55282682 -86.9375 86.6875 C-85.99197266 85.77871094 -85.99197266 85.77871094 -85.02734375 84.8515625 C-83.05095573 83.0465376 -81.03547508 81.30039101 -79 79.5625 C-75.53396737 76.58492371 -72.62281518 73.34268193 -69.66796875 69.8671875 C-67.31012862 67.22773181 -64.83929338 65.11296251 -62 63 C-61.34 63 -60.68 63 -60 63 C-59.773125 62.443125 -59.54625 61.88625 -59.3125 61.3125 C-57.61427198 58.32038397 -55.49235804 56.38399465 -53 54 C-52.32839844 53.30777344 -51.65679687 52.61554687 -50.96484375 51.90234375 C-50.25457031 51.17144531 -49.54429687 50.44054687 -48.8125 49.6875 C-48.13832031 48.99011719 -47.46414063 48.29273438 -46.76953125 47.57421875 C-45 46 -45 46 -43 46 C-42.75008804 45.42444366 -42.50017609 44.84888733 -42.24269104 44.25588989 C-40.82468589 41.68174766 -39.20569101 39.97235628 -37.11694336 37.90576172 C-35.92076637 36.71465286 -35.92076637 36.71465286 -34.70042419 35.4994812 C-33.83893265 34.65144928 -32.9774411 33.80341736 -32.08984375 32.9296875 C-31.20720352 32.05224884 -30.32456329 31.17481018 -29.41517639 30.27078247 C-27.07307161 27.94347304 -24.72698316 25.62028733 -22.378479 23.29943848 C-19.06430506 20.02330685 -15.75535053 16.74193282 -12.44911194 13.45779419 C-10.68901146 11.70998749 -8.92624555 9.96486025 -7.16062927 8.22262573 C-6.36633011 7.43485748 -5.57203094 6.64708923 -4.75366211 5.83544922 C-3.70014809 4.79431473 -3.70014809 4.79431473 -2.62535095 3.73214722 C-0.92203324 2.08232246 -0.92203324 2.08232246 0 0 Z " fill="#FDFEFE" transform="translate(411,521)"/>
<path d="M0 0 C2.27709925 3.41564887 2.25040589 4.60981864 2.25168228 8.62102413 C2.25689778 9.79843479 2.26211327 10.97584545 2.26748681 12.18893522 C2.26302537 13.48871779 2.25856392 14.78850037 2.25396729 16.12767029 C2.25627044 17.51746807 2.25944598 18.90726464 2.26342177 20.29705864 C2.27179852 24.12492144 2.26763149 27.95268498 2.26144934 31.78054821 C2.25693754 35.90536186 2.26390229 40.03015805 2.26940918 44.15496826 C2.2783187 52.23923115 2.27637418 60.32345697 2.2705839 68.40772133 C2.26607322 74.97655531 2.26545193 81.54537887 2.26763153 88.11421394 C2.267938 89.04794932 2.26824446 89.9816847 2.26856022 90.94371508 C2.26919965 92.84039656 2.26984807 94.73707804 2.2705054 96.63375951 C2.27621334 114.43393332 2.2696437 132.23408656 2.25890467 150.034257 C2.2499702 165.31654948 2.25151944 180.59881158 2.26074219 195.88110352 C2.27143916 213.61459115 2.27566243 231.34806073 2.26951766 249.08155113 C2.26888054 250.97169085 2.2682518 252.86183057 2.26763153 254.75197029 C2.2671687 256.14705631 2.2671687 256.14705631 2.26669653 257.57032589 C2.26496776 264.13280485 2.26788864 270.69527237 2.27259064 277.25774956 C2.27819317 285.25309888 2.27669633 293.24840892 2.26602915 301.24375372 C2.26076374 305.32520416 2.25873042 309.40658903 2.26532745 313.48803902 C2.27127118 317.22171125 2.26803799 320.95525695 2.25737235 324.68891764 C2.25406712 326.68505233 2.26062342 328.68119575 2.26748681 330.67732137 C2.25966357 332.44734898 2.25966357 332.44734898 2.25168228 334.25313473 C2.25135758 335.27371564 2.25103287 336.29429655 2.25069833 337.34580415 C1.99558892 340.04670108 1.38451589 341.69195143 0 344 C-4.44168603 343.6056447 -6.53034557 340.54824781 -9.25 337.375 C-12.96629161 333.16783064 -16.7305302 329.35326612 -21.04711914 325.74975586 C-22.95449039 324.04077602 -24.58631297 322.27207097 -26.24609375 320.32421875 C-34.86993494 310.34124738 -43.85916708 300.57667751 -53.82421875 291.91796875 C-57.38412743 288.77988049 -60.67715269 285.38476372 -64 282 C-64.76054688 281.24976563 -65.52109375 280.49953125 -66.3046875 279.7265625 C-68.93708184 277.06364764 -71.47832455 274.33692636 -74.01245117 271.58129883 C-81.35349587 263.59805732 -81.35349587 263.59805732 -89.44921875 256.39453125 C-91 255 -91 255 -92.51953125 252.88671875 C-93.94616202 250.7117631 -93.94616202 250.7117631 -97 250 C-97.391875 249.29875 -97.78375 248.5975 -98.1875 247.875 C-99.86614376 245.21232369 -101.13170771 243.910273 -103.5 241.9375 C-108.14630863 238.03425911 -112.08774883 233.59941698 -116.09375 229.0625 C-118.11458517 226.85479883 -120.23560483 224.893555 -122.51538086 222.95556641 C-131.01869857 215.56529905 -138.89035507 207.45359518 -146.88452148 199.52050781 C-149.01132461 197.41165896 -151.14636971 195.31170019 -153.28881836 193.21875 C-155.89189614 190.67569572 -158.48009789 188.118375 -161.05819511 185.55000687 C-162.03913553 184.57762867 -163.02520493 183.61039624 -164.01643562 182.64850998 C-165.39471616 181.30894821 -166.75271262 179.9486105 -168.10961914 178.58740234 C-168.88713028 177.82019867 -169.66464142 177.052995 -170.4657135 176.26254272 C-172 174 -172 174 -172.00356102 171.79716396 C-170.49301656 167.5869162 -167.62769796 165.08361384 -164.47731018 161.98283386 C-163.78774654 161.28844139 -163.0981829 160.59404892 -162.38772339 159.87861425 C-160.06942481 157.54902365 -157.73707527 155.23403158 -155.40454102 152.91870117 C-153.74178945 151.25380433 -152.07990402 149.58804207 -150.41882324 147.92147827 C-145.90116754 143.39411534 -141.37108982 138.87937129 -136.83845258 134.36701369 C-132.58286837 130.12894699 -128.33763397 125.88052043 -124.09123968 121.63325015 C-115.67898253 113.21999183 -107.25710134 104.81643358 -98.82983398 96.41821289 C-90.64613425 88.26270583 -82.46949026 80.10020994 -74.30053711 71.92993164 C-73.54542403 71.17469869 -73.54542403 71.17469869 -72.77505613 70.4042085 C-72.02126769 69.650299 -72.02126769 69.650299 -71.25225121 68.88115901 C-62.42960483 60.05720417 -53.60120327 51.23903135 -44.76957512 42.42406654 C-41.00447545 38.66604555 -37.2410969 34.90631666 -33.47900581 31.14528465 C-29.05396442 26.72224549 -24.62388203 22.30431816 -20.18976593 17.89037704 C-18.55857062 16.265046 -16.92908656 14.63799555 -15.30139732 13.00915337 C-13.08874144 10.79552303 -10.87008128 8.5880984 -8.64967346 6.38224792 C-7.998611 5.72808826 -7.34754854 5.0739286 -6.67675692 4.39994591 C-2.22835766 0 -2.22835766 0 0 0 Z " fill="#FDFEFE" transform="translate(794,340)"/>
<path d="M0 0 C3 0 3 0 4.71875 1.64453125 C5.3065625 2.35996094 5.894375 3.07539063 6.5 3.8125 C8.9965172 6.82943973 8.9965172 6.82943973 11.71875 9.63671875 C13 11 13 11 13 13 C13.61875 13.12375 14.2375 13.2475 14.875 13.375 C17 14 17 14 19 16 C19 16.99 19 17.98 19 19 C19.61875 19.12375 20.2375 19.2475 20.875 19.375 C23 20 23 20 25 22 C25 22.99 25 23.98 25 25 C25.8971875 25.14501953 25.8971875 25.14501953 26.8125 25.29296875 C29.48249591 26.15594957 30.26528849 27.13055818 32 29.3125 C38.66897449 37.28658563 46.17394174 44.54728008 54.0703125 51.296875 C59.15906357 55.78816137 63.9038147 60.65476622 68.3125 65.8125 C74.92011357 73.49577159 82.23728457 80.58679515 89.9375 87.1640625 C96.51690802 93.02073252 102.5997708 99.4184826 108.328125 106.1015625 C112.4216085 110.7497704 116.84146547 115.05677373 121.5625 119.0625 C126.62236488 123.39228417 131.23414487 128.18567126 135.89672852 132.93383789 C136.52635498 133.57184326 137.15598145 134.20984863 137.8046875 134.8671875 C138.65522705 135.73512939 138.65522705 135.73512939 139.52294922 136.62060547 C140.97110166 138.10372935 140.97110166 138.10372935 143 139 C143.37125 139.680625 143.7425 140.36125 144.125 141.0625 C147.69872995 146.66134359 152.79757678 151.00957205 157.8125 155.3125 C161.30666498 158.33938144 164.68102999 161.47083248 168 164.6875 C169.423125 166.05455078 169.423125 166.05455078 170.875 167.44921875 C173 170 173 170 173 174 C171.50003767 175.67606503 171.50003767 175.67606503 169.44451141 177.31300449 C165.3668911 180.68276223 161.6173353 184.24451407 157.88781738 187.9919281 C157.2194465 188.65944456 156.55107562 189.32696101 155.86245108 190.01470524 C153.6461581 192.22936442 151.43343422 194.44755397 149.22070312 196.66577148 C147.62369922 198.26305774 146.02647454 199.86012327 144.42904663 201.45698547 C140.10923468 205.77651132 135.79250601 210.09910647 131.47633553 214.42227054 C126.95912268 218.9457481 122.43906484 223.46638102 117.91931152 227.98731995 C110.33879966 235.57058359 102.76003493 243.15558827 95.18261719 250.74194336 C87.38106101 258.55269162 79.57844551 266.36237915 71.77441406 274.1706543 C71.05172682 274.89373563 71.05172682 274.89373563 70.31443983 275.63142466 C67.89720262 278.049967 65.47994467 280.46848863 63.06267643 282.88699996 C43.03857077 302.92145664 23.01812949 322.95957215 3 343 C2.01 342.67 1.02 342.34 0 342 C-1.31275373 339.37449255 -1.12537352 337.44099922 -1.12584114 334.49923038 C-1.12844889 333.32319408 -1.13105664 332.14715777 -1.13374341 330.93548399 C-1.13151268 329.63210646 -1.12928196 328.32872892 -1.12698364 326.9858551 C-1.12813486 325.59620893 -1.12972239 324.20656306 -1.13171089 322.81691784 C-1.13590414 318.9848898 -1.13381352 315.15288651 -1.13072467 311.32085836 C-1.12847076 307.1933248 -1.13195015 303.06579564 -1.13470459 298.93826294 C-1.13916149 290.84685473 -1.13818614 282.75545577 -1.13529195 274.66404719 C-1.13303745 268.08993894 -1.1327256 261.5158333 -1.13381577 254.94172478 C-1.133969 254.00756519 -1.13412223 253.0734056 -1.13428011 252.11093814 C-1.13459982 250.2134494 -1.13492403 248.31596066 -1.1352527 246.41847192 C-1.1381073 228.60689339 -1.13482087 210.79531999 -1.12945233 192.98374229 C-1.12498504 177.68862184 -1.12575965 162.39350898 -1.13037109 147.09838867 C-1.13571847 129.35393474 -1.13783183 111.60948533 -1.13475883 93.86503071 C-1.13444027 91.9740508 -1.1341259 90.08307089 -1.13381577 88.19209099 C-1.13366149 87.26159794 -1.13350721 86.33110489 -1.13334826 85.37241508 C-1.13248355 78.80397084 -1.13394503 72.23552945 -1.13629532 65.66708565 C-1.13909536 57.66547282 -1.13835075 49.6638698 -1.13301457 41.6622581 C-1.13038022 37.57690449 -1.12936802 33.49156726 -1.13266373 29.40621376 C-1.13563217 25.67012124 -1.13402465 21.93406037 -1.12868617 18.19797074 C-1.12703077 16.19806694 -1.13031472 14.19816096 -1.13374341 12.19825941 C-1.13113566 11.01961536 -1.12852791 9.8409713 -1.12584114 8.62661076 C-1.12567879 7.60510805 -1.12551644 6.58360535 -1.12534916 5.53114802 C-1 3 -1 3 0 0 Z " fill="#FDFEFE" transform="translate(230,340)"/>
<path d="M0 0 C0.90723144 -0.00290688 1.81446288 -0.00581376 2.74918619 -0.00880873 C5.81738973 -0.01616132 8.88539658 -0.00914097 11.95359898 -0.002285 C14.16423141 -0.00458736 16.37486309 -0.00776236 18.58549315 -0.01173949 C24.68225683 -0.02012712 30.77895831 -0.01594429 36.87572229 -0.00976706 C42.76858734 -0.00572212 48.66143891 -0.01102837 54.55430211 -0.01606179 C67.35599424 -0.02660884 80.15766644 -0.02567426 92.95936048 -0.01990396 C104.16275993 -0.01487871 115.36615207 -0.01355671 126.56955242 -0.01594925 C127.31184758 -0.01610202 128.05414273 -0.01625479 128.81893168 -0.01641219 C131.83193654 -0.01703484 134.84494139 -0.01767163 137.85794624 -0.01833172 C166.14045153 -0.02445401 194.42294411 -0.0188961 222.70544743 -0.00813792 C247.84705509 0.00135278 272.98864249 0.00050535 298.13024998 -0.00905991 C326.35854054 -0.01976353 354.58681986 -0.02401889 382.81511217 -0.01783538 C385.82303146 -0.01719392 388.83095075 -0.01656824 391.83887005 -0.01594925 C392.94985925 -0.01571202 392.94985925 -0.01571202 394.08329267 -0.01546999 C405.28049153 -0.01319262 416.47768229 -0.01586014 427.67488003 -0.02090836 C440.40414911 -0.02661859 453.1333951 -0.02521498 465.86266129 -0.01434687 C472.36227174 -0.00907656 478.86184098 -0.00705644 485.36145115 -0.01364517 C491.30451125 -0.01957877 497.24749173 -0.01637256 503.19054455 -0.00569007 C505.34730775 -0.00344498 507.5040776 -0.00461693 509.66083657 -0.00944164 C512.57945407 -0.01547279 515.49779437 -0.00933661 518.41639709 0 C519.26496065 -0.00468233 520.11352421 -0.00936466 520.98780182 -0.01418889 C528.00749416 0.03107371 528.00749416 0.03107371 531.27111912 2.25168228 C530.94111912 2.91168228 530.61111912 3.57168228 530.27111912 4.25168228 C528.95111912 3.92168228 527.63111912 3.59168228 526.27111912 3.25168228 C526.27111912 2.59168228 526.27111912 1.93168228 526.27111912 1.25168228 C475.63655892 1.31282362 425.00200239 1.37633874 374.36746311 1.45300674 C373.61831108 1.45414037 372.86915905 1.45527399 372.09730545 1.45644197 C355.8170507 1.48109218 339.53679666 1.506185 323.2565433 1.53173389 C315.27295802 1.54425998 307.2893726 1.55668824 299.30578709 1.56906509 C298.11407945 1.57091508 298.11407945 1.57091508 296.89829691 1.57280244 C271.13727853 1.61274755 245.37625666 1.6462302 219.61522509 1.67636919 C193.14713856 1.70736946 166.67906905 1.74487424 140.21100365 1.7905884 C136.47440595 1.797039 132.73780812 1.80341508 129.00121021 1.80974579 C127.89806294 1.81161825 127.89806294 1.81161825 126.77262986 1.81352853 C114.92402466 1.83344828 103.07542136 1.84649102 91.22680447 1.85697556 C79.32111907 1.86765686 67.41546193 1.88555101 55.50979845 1.91084932 C49.05654845 1.92425718 42.60333583 1.93438585 36.15007114 1.93589592 C30.24686887 1.93734788 24.34375673 1.94790019 18.44058211 1.96581669 C16.30052152 1.9706829 14.16045007 1.97215468 12.02038507 1.96996109 C9.11943169 1.96747487 6.2187675 1.97716208 3.31784725 1.98996925 C2.48009756 1.98631957 1.64234787 1.98266989 0.77921182 1.97890961 C-3.78251545 2.0137547 -7.4326635 2.51588196 -11.72888088 4.25168228 C-11.72888088 3.59168228 -11.72888088 2.93168228 -11.72888088 2.25168228 C-7.81851225 -0.35523014 -4.53589595 -0.02495999 0 0 Z " fill="#B7D1FA" transform="translate(252.72888088226318,327.74831771850586)"/>
<path d="M0 0 C0.66 0 1.32 0 2 0 C4.27709925 3.41564887 4.25040589 4.60981864 4.25168228 8.62102413 C4.25689778 9.79843479 4.26211327 10.97584545 4.26748681 12.18893522 C4.26302537 13.48871779 4.25856392 14.78850037 4.25396729 16.12767029 C4.25627044 17.51746807 4.25944598 18.90726464 4.26342177 20.29705864 C4.27179852 24.12492144 4.26763149 27.95268498 4.26144934 31.78054821 C4.25693754 35.90536186 4.26390229 40.03015805 4.26940918 44.15496826 C4.2783187 52.23923115 4.27637418 60.32345697 4.2705839 68.40772133 C4.26607322 74.97655531 4.26545193 81.54537887 4.26763153 88.11421394 C4.267938 89.04794932 4.26824446 89.9816847 4.26856022 90.94371508 C4.26919965 92.84039656 4.26984807 94.73707804 4.2705054 96.63375951 C4.27621334 114.43393332 4.2696437 132.23408656 4.25890467 150.034257 C4.2499702 165.31654948 4.25151944 180.59881158 4.26074219 195.88110352 C4.27143916 213.61459115 4.27566243 231.34806073 4.26951766 249.08155113 C4.26888054 250.97169085 4.2682518 252.86183057 4.26763153 254.75197029 C4.26732298 255.68202764 4.26701443 256.61208499 4.26669653 257.57032589 C4.26496776 264.13280485 4.26788864 270.69527237 4.27259064 277.25774956 C4.27819317 285.25309888 4.27669633 293.24840892 4.26602915 301.24375372 C4.26076374 305.32520416 4.25873042 309.40658903 4.26532745 313.48803902 C4.27127118 317.22171125 4.26803799 320.95525695 4.25737235 324.68891764 C4.25406712 326.68505233 4.26062342 328.68119575 4.26748681 330.67732137 C4.26227132 331.85733978 4.25705582 333.03735819 4.25168228 334.25313473 C4.25135758 335.27371564 4.25103287 336.29429655 4.25069833 337.34580415 C3.99558892 340.04670108 3.38451589 341.69195143 2 344 C0.1875 343.8125 0.1875 343.8125 -2 343 C-3.75 340.4375 -3.75 340.4375 -5 338 C-3 338 -3 338 -0.875 340 C-0.25625 340.66 0.3625 341.32 1 342 C1 341.01 1 340.02 1 339 C1.66 339 2.32 339 3 339 C2.89540963 296.64583912 2.78563634 254.2916945 2.66888306 211.93756531 C2.65511299 206.94063609 2.64138597 201.94370675 2.62768555 196.94677734 C2.62495724 195.95195187 2.62222894 194.95712639 2.61941796 193.93215469 C2.57530733 177.81057966 2.53468596 161.68899762 2.49534739 145.56741032 C2.45492415 129.03303881 2.41076679 112.49868034 2.36312145 95.96432805 C2.333825 85.75651871 2.30746347 75.54871036 2.28482103 65.34088406 C2.26902909 58.3470665 2.2496198 51.35326489 2.22733159 44.35946503 C2.21456818 40.32058886 2.20343256 36.28172498 2.19658089 32.24283409 C2.19027765 28.54792518 2.17944984 24.85305864 2.1649667 21.15817299 C2.15841665 19.18278102 2.15675918 17.20737472 2.15525442 15.23197246 C2.14977998 14.06403754 2.14430554 12.89610261 2.1386652 11.69277573 C2.13600716 10.68271965 2.13334911 9.67266357 2.13061053 8.63199973 C2.01183504 6.23849389 1.81318235 4.25179992 1 2 C0.34 1.67 -0.32 1.34 -1 1 C-0.67 0.67 -0.34 0.34 0 0 Z " fill="#B4DDFB" transform="translate(792,340)"/>
<path d="M0 0 C0 0.33 0 0.66 0 1 C-9.42094368 3.43121127 -19.45770994 4.2378729 -29 2 C-29 1.67 -29 1.34 -29 1 C-9.65957447 -0.19148936 -9.65957447 -0.19148936 0 0 Z " fill="#4FB6F9" transform="translate(528,594)"/>
<path d="M0 0 C1.45880109 0.14107747 2.91703551 0.28802415 4.375 0.4375 C5.59316406 0.55931641 5.59316406 0.55931641 6.8359375 0.68359375 C9 1 9 1 11 2 C13.71262116 2.2322646 16.40773126 2.41936235 19.125 2.5625 C20.25615234 2.62727539 20.25615234 2.62727539 21.41015625 2.69335938 C23.27321888 2.7994832 25.13658524 2.90025001 27 3 C27 3.33 27 3.66 27 4 C19.74 4 12.48 4 5 4 C5 3.34 5 2.68 5 2 C3.35 1.67 1.7 1.34 0 1 C0 0.67 0 0.34 0 0 Z " fill="#6BC2F9" transform="translate(494,579)"/>
<path d="M0 0 C0.33 0.99 0.66 1.98 1 3 C-0.07421875 4.75390625 -0.07421875 4.75390625 -1.6875 6.5625 C-2.20699219 7.16191406 -2.72648438 7.76132812 -3.26171875 8.37890625 C-6.09801126 11.02398803 -8.10735904 12 -12 12 C-11 9 -11 9 -9.171875 8.0390625 C-8.45515625 7.69617188 -7.7384375 7.35328125 -7 7 C-5.0500371 5.29004456 -5.0500371 5.29004456 -3.25 3.375 C-2.63640625 2.74335937 -2.0228125 2.11171875 -1.390625 1.4609375 C-0.93171875 0.97882812 -0.4728125 0.49671875 0 0 Z " fill="#48C3FA" transform="translate(242,673)"/>
<path d="M0 0 C0.763125 0.309375 1.52625 0.61875 2.3125 0.9375 C4.18789677 1.67893593 6.08684652 2.36228217 8 3 C8 3.66 8 4.32 8 5 C9.051875 4.938125 9.051875 4.938125 10.125 4.875 C13.38371628 5.01668332 15.9559947 5.86734686 19 7 C19 7.66 19 8.32 19 9 C11.27756879 8.85429375 6.10904065 5.58178049 0 1 C0 0.67 0 0.34 0 0 Z " fill="#59BBF8" transform="translate(480,586)"/>
<path d="M0 0 C0.66 0 1.32 0 2 0 C2 0.66 2 1.32 2 2 C2.66 2 3.32 2 4 2 C4 2.66 4 3.32 4 4 C4.66 4 5.32 4 6 4 C6 4.66 6 5.32 6 6 C6.66 6 7.32 6 8 6 C7.67 7.32 7.34 8.64 7 10 C5.82438854 8.90536178 4.6597511 7.79892814 3.5 6.6875 C2.52546875 5.76517578 2.52546875 5.76517578 1.53125 4.82421875 C0 3 0 3 0 0 Z " fill="#3A7DF1" transform="translate(261,367)"/>
<path d="M0 0 C0.33 0.66 0.66 1.32 1 2 C0.67 2.99 0.34 3.98 0 5 C-0.66 5 -1.32 5 -2 5 C-2 5.66 -2 6.32 -2 7 C-2.66 7 -3.32 7 -4 7 C-4 7.66 -4 8.32 -4 9 C-5.32 8.67 -6.64 8.34 -8 8 C-5.36 5.36 -2.72 2.72 0 0 Z " fill="#4BAEF7" transform="translate(353,562)"/>
<path d="M0 0 C0.33 0.99 0.66 1.98 1 3 C0.01 4.485 0.01 4.485 -1 6 C-1.66 6 -2.32 6 -3 6 C-3 6.66 -3 7.32 -3 8 C-4.32 7.67 -5.64 7.34 -7 7 C-4.69 4.69 -2.38 2.38 0 0 Z " fill="#4CACF7" transform="translate(365,550)"/>
<path d="M0 0 C0.33 1.32 0.66 2.64 1 4 C0.34 4 -0.32 4 -1 4 C-1 4.66 -1 5.32 -1 6 C-2.98 6.66 -4.96 7.32 -7 8 C-6.02133662 6.85373678 -5.04205413 5.70800212 -4.0625 4.5625 C-3.51722656 3.92441406 -2.97195313 3.28632812 -2.41015625 2.62890625 C-1.63204305 1.73008851 -0.84063472 0.84063472 0 0 Z " fill="#4AB5F8" transform="translate(312,603)"/>
<path d="M0 0 C0.33 0.66 0.66 1.32 1 2 C0.0625 4.125 0.0625 4.125 -1 6 C-1.66 6 -2.32 6 -3 6 C-3 6.66 -3 7.32 -3 8 C-4.32 7.67 -5.64 7.34 -7 7 C-4.69 4.69 -2.38 2.38 0 0 Z " fill="#4BB3F8" transform="translate(327,588)"/>
<path d="M0 0 C-6.5 3 -6.5 3 -11 3 C-10.67 2.01 -10.34 1.02 -10 0 C-6.33694766 -0.74926071 -3.57644848 -1.2380014 0 0 Z " fill="#A3D9FB" transform="translate(533,579)"/>
<path d="M0 0 C0.66 0.33 1.32 0.66 2 1 C1.38125 1.2475 0.7625 1.495 0.125 1.75 C-2.35068687 3.20628639 -2.95125002 4.37812506 -4 7 C-5.32 6.34 -6.64 5.68 -8 5 C-6.68 4.67 -5.36 4.34 -4 4 C-4 3.34 -4 2.68 -4 2 C-2.125 0.9375 -2.125 0.9375 0 0 Z " fill="#62BBF9" transform="translate(541,572)"/>
<path d="M0 0 C0.33 0.66 0.66 1.32 1 2 C-0.98 4.97 -0.98 4.97 -3 8 C-4.32 7.67 -5.64 7.34 -7 7 C-4.69 4.69 -2.38 2.38 0 0 Z " fill="#4FB2F8" transform="translate(344,571)"/>
<path d="M0 0 C0.99 0.33 1.98 0.66 3 1 C0.69 3.31 -1.62 5.62 -4 8 C-4.33 7.01 -4.66 6.02 -5 5 C-3.625 3.5 -3.625 3.5 -2 2 C-1.34 2 -0.68 2 0 2 C0 1.34 0 0.68 0 0 Z " fill="#3CADF8" transform="translate(334,596)"/>
<path d="M0 0 C0.33 0.99 0.66 1.98 1 3 C-1.97 5.475 -1.97 5.475 -5 8 C-5.66 7.67 -6.32 7.34 -7 7 C-4.69 4.69 -2.38 2.38 0 0 Z " fill="#55B1F7" transform="translate(566,548)"/>
<path d="M0 0 C0.33 0.99 0.66 1.98 1 3 C-0.65 4.65 -2.3 6.3 -4 8 C-4.66 7.67 -5.32 7.34 -6 7 C-4.02 4.69 -2.04 2.38 0 0 Z " fill="#B2E3FD" transform="translate(308,624)"/>
<path d="M0 0 C0.33 1.32 0.66 2.64 1 4 C0.34 4 -0.32 4 -1 4 C-1 4.66 -1 5.32 -1 6 C-1.99 5.67 -2.98 5.34 -4 5 C-2.25 1.125 -2.25 1.125 0 0 Z M-6 6 C-5.01 6.495 -5.01 6.495 -4 7 C-4.99 7.495 -4.99 7.495 -6 8 C-6 7.34 -6 6.68 -6 6 Z " fill="#36A3F7" transform="translate(545,569)"/>
<path d="M0 0 C0.33 0.99 0.66 1.98 1 3 C-0.65 4.65 -2.3 6.3 -4 8 C-4.99 7.67 -5.98 7.34 -7 7 C-6.34 7 -5.68 7 -5 7 C-4.731875 6.401875 -4.46375 5.80375 -4.1875 5.1875 C-3.01506533 3.02775192 -1.80630718 1.64209744 0 0 Z " fill="#62A3F5" transform="translate(693,421)"/>
<path d="M0 0 C0 0.99 0 1.98 0 3 C-2.5 5.1875 -2.5 5.1875 -5 7 C-5.66 6.67 -6.32 6.34 -7 6 C-4.69 4.02 -2.38 2.04 0 0 Z " fill="#2E71F1" transform="translate(768,348)"/>
<path d="M0 0 C0.33 1.32 0.66 2.64 1 4 C0.34 4 -0.32 4 -1 4 C-1 4.66 -1 5.32 -1 6 C-2.32 5.67 -3.64 5.34 -5 5 C-3.35 3.35 -1.7 1.7 0 0 Z " fill="#47B6F8" transform="translate(297,618)"/>
<path d="M0 0 C0.33 1.32 0.66 2.64 1 4 C0.34 4 -0.32 4 -1 4 C-1 4.66 -1 5.32 -1 6 C-2.32 5.67 -3.64 5.34 -5 5 C-3.35 3.35 -1.7 1.7 0 0 Z " fill="#4BAEF7" transform="translate(551,563)"/>
</svg>
